<svg width="19" height="17" viewBox="0 0 19 17" fill="#E94057" xmlns="http://www.w3.org/2000/svg">
<path fill-rule="evenodd" clip-rule="evenodd" d="M6.41687 1.021C6.55097 0.752793 6.8251 0.583374 7.12496 0.583374H11.875C12.1748 0.583374 12.4489 0.752793 12.583 1.021L13.5517 2.95837H16.2291C17.3222 2.95837 18.2083 3.84448 18.2083 4.93754V14.4375C18.2083 15.5306 17.3222 16.4167 16.2291 16.4167H2.77079C1.67773 16.4167 0.791626 15.5306 0.791626 14.4375V4.93754C0.791626 3.84448 1.67773 2.95837 2.77079 2.95837H5.44818L6.41687 1.021ZM7.2184 2.95837H11.7815L11.3857 2.16671H7.61424L7.2184 2.95837ZM2.77079 4.54171C2.55218 4.54171 2.37496 4.71893 2.37496 4.93754V14.4375C2.37496 14.6562 2.55218 14.8334 2.77079 14.8334H16.2291C16.4477 14.8334 16.625 14.6562 16.625 14.4375V4.93754C16.625 4.71893 16.4477 4.54171 16.2291 4.54171H2.77079ZM5.54163 9.68754C5.54163 7.50141 7.31382 5.72921 9.49996 5.72921C11.6861 5.72921 13.4583 7.50141 13.4583 9.68754C13.4583 11.8737 11.6861 13.6459 9.49996 13.6459C7.31382 13.6459 5.54163 11.8737 5.54163 9.68754ZM9.49996 7.31254C8.18827 7.31254 7.12496 8.37586 7.12496 9.68754C7.12496 10.9992 8.18827 12.0625 9.49996 12.0625C10.8116 12.0625 11.875 10.9992 11.875 9.68754C11.875 8.37586 10.8116 7.31254 9.49996 7.31254Z" />
</svg>
