<svg width="19" height="19" viewBox="0 0 19 19" fill="none" xmlns="http://www.w3.org/2000/svg">
<path fill-rule="evenodd" clip-rule="evenodd" d="M5.29725 1.11765C5.44623 0.912816 5.68422 0.791626 5.9375 0.791626H12.2708C12.5241 0.791626 12.7621 0.912818 12.9111 1.11766C12.2315 1.61192 12.2645 1.58789 12.9111 1.11766L12.913 1.12029L12.9159 1.12438L12.9249 1.13691C12.9322 1.14718 12.942 1.16126 12.9543 1.17902C12.9788 1.21454 13.0128 1.26482 13.0543 1.32879C13.1374 1.45664 13.251 1.63982 13.3796 1.86971C13.6359 2.32788 13.9564 2.98014 14.2106 3.75616C14.4568 4.50733 14.6458 5.38965 14.6458 6.33329C14.6458 7.10956 14.4804 7.85448 14.1832 8.53136C13.4319 10.243 11.8286 11.5365 9.89583 11.8178V16.625H13.0625C13.4997 16.625 13.8542 16.9794 13.8542 17.4166C13.8542 17.8538 13.4997 18.2083 13.0625 18.2083H5.14583C4.70861 18.2083 4.35417 17.8538 4.35417 17.4166C4.35417 16.9794 4.70861 16.625 5.14583 16.625H8.3125V11.8188C6.46383 11.5544 4.91052 10.3775 4.12171 8.76174C3.76331 8.02751 3.5625 7.20269 3.5625 6.33329C3.5625 5.27835 3.7988 4.2993 4.08793 3.49312C4.34001 2.79031 4.63768 2.20379 4.87244 1.79227C4.99018 1.58588 5.09308 1.42181 5.16803 1.30727C5.20553 1.24996 5.23612 1.20491 5.25818 1.17304C5.26921 1.1571 5.27811 1.14444 5.28469 1.13518L5.29279 1.12383L5.29549 1.12009L5.29649 1.11871L5.29725 1.11765ZM6.36654 2.37496C6.33013 2.43489 6.29021 2.50236 6.24772 2.57684C6.04681 2.92902 5.79229 3.43105 5.57832 4.02763M6.36654 2.37496H11.8418C11.8887 2.4521 11.9413 2.54172 11.9978 2.64269C12.218 3.03635 12.4913 3.59378 12.706 4.24915C12.8617 4.72437 12.9839 5.24266 13.0356 5.78142C12.785 5.85678 12.4611 5.93927 12.0979 5.99663C11.2309 6.13352 10.2667 6.1076 9.51148 5.65444C8.28757 4.9201 6.87671 4.94602 5.86351 5.106C5.64538 5.14044 5.43976 5.18202 5.25099 5.22621C5.32902 4.8037 5.44473 4.40012 5.57832 4.02763M5.54454 8.06711C5.36567 7.70065 5.24163 7.30223 5.18346 6.88195L5.54454 8.06711ZM5.18346 6.88195C5.43256 6.80747 5.75238 6.7265 6.11045 6.66996C6.97745 6.53306 7.94159 6.55898 8.69686 7.01214C9.92076 7.74648 11.3316 7.72056 12.3448 7.56058C12.5396 7.52982 12.7245 7.49337 12.8962 7.45445C12.8507 7.60485 12.7962 7.75189 12.7334 7.89493C12.1186 9.29568 10.7182 10.2916 9.10417 10.2916C7.54126 10.2916 6.18838 9.38587 5.54454 8.06711" fill="#E94057"/>
</svg>
