<svg width="19" height="19" viewBox="0 0 19 19" fill="none" xmlns="http://www.w3.org/2000/svg">
<path fill-rule="evenodd" clip-rule="evenodd" d="M16.7193 0.961609C16.9098 1.11173 17.0209 1.34083 17.0209 1.5833V4.7833C17.0211 4.79454 17.0211 4.80575 17.0209 4.81692V13.6166C17.0209 14.8409 16.0284 15.8333 14.8042 15.8333H13.2605C12.0581 15.8333 11.0834 14.8586 11.0834 13.6562C11.0834 12.4538 12.0581 11.4791 13.2605 11.4791H15.4375V5.80043L7.12504 7.7685V15.2C7.12504 16.4242 6.13259 17.4166 4.90837 17.4166H3.76046C2.55809 17.4166 1.58337 16.4419 1.58337 15.2396C1.58337 14.0372 2.55809 13.0625 3.76046 13.0625H5.54171V7.15851C5.54147 7.14728 5.54147 7.13608 5.54171 7.12492V3.9583C5.54171 3.59224 5.79267 3.27392 6.14862 3.18849L16.0445 0.813493C16.2802 0.756907 16.5289 0.811489 16.7193 0.961609ZM7.12504 6.1414L15.4375 4.17333V2.58745L7.12504 4.58245V6.1414ZM5.54171 14.6458H3.76046C3.43254 14.6458 3.16671 14.9116 3.16671 15.2396C3.16671 15.5675 3.43254 15.8333 3.76046 15.8333H4.90837C5.25814 15.8333 5.54171 15.5497 5.54171 15.2V14.6458ZM15.4375 13.0625H13.2605C12.9325 13.0625 12.6667 13.3283 12.6667 13.6562C12.6667 13.9841 12.9325 14.25 13.2605 14.25H14.8042C15.154 14.25 15.4375 13.9664 15.4375 13.6166V13.0625Z" fill="#E94057"/>
</svg>
