<svg width="19" height="19" viewBox="0 0 19 19" fill="none" xmlns="http://www.w3.org/2000/svg">
<path fill-rule="evenodd" clip-rule="evenodd" d="M18.189 1.40956C18.285 1.83612 18.017 2.25972 17.5905 2.3557L13.4583 3.28543V8.70834H17.4167C17.8539 8.70834 18.2083 9.06278 18.2083 9.50001C18.2083 11.8409 17.5009 14.0261 16.0198 15.6343C14.5289 17.2531 12.3261 18.2083 9.50001 18.2083C6.67389 18.2083 4.47113 17.2531 2.98019 15.6343C1.49907 14.0261 0.791675 11.8409 0.791675 9.50001C0.791675 9.06278 1.14612 8.70834 1.58334 8.70834H2.37501V5.77918L1.75712 5.9182C1.33056 6.01418 0.906961 5.74618 0.810984 5.31962C0.715008 4.89306 0.983 4.46946 1.40956 4.37348L2.37501 4.15626V3.95834C2.37501 3.52112 2.72945 3.16668 3.16668 3.16668C3.55088 3.16668 3.87116 3.44037 3.94319 3.80342L5.54168 3.44376V3.16668C5.54168 2.72945 5.89612 2.37501 6.33334 2.37501C6.74414 2.37501 7.08186 2.6879 7.12118 3.08837L8.70834 2.73126V2.37501C8.70834 1.93778 9.06278 1.58334 9.50001 1.58334C9.93723 1.58334 10.2917 1.93778 10.2917 2.37501L11.875 2.01876V1.58334C11.875 1.14612 12.2295 0.791675 12.6667 0.791675C13.1039 0.791675 13.4583 1.14612 13.4583 1.58334V1.66251L17.2429 0.810984C17.6695 0.715008 18.0931 0.983 18.189 1.40956ZM11.875 3.64168L10.2917 3.99793V8.70834H11.875V3.64168ZM2.40696 10.2917C2.54641 11.9913 3.14016 13.4708 4.14484 14.5616C5.29279 15.8081 7.04836 16.625 9.50001 16.625C11.9517 16.625 13.7072 15.8081 14.8552 14.5616C15.8599 13.4708 16.4536 11.9913 16.5931 10.2917H2.40696ZM3.95834 8.70834H5.54168V5.06668L3.95834 5.42292V8.70834ZM7.12501 4.71043V8.70834H8.70834V4.35418L7.12501 4.71043Z" fill="#E94057"/>
</svg>
