<svg width="19" height="19" viewBox="0 0 19 19" fill="none" xmlns="http://www.w3.org/2000/svg">
<path fill-rule="evenodd" clip-rule="evenodd" d="M14.6458 2.37496C13.99 2.37496 13.4583 2.90662 13.4583 3.56246C13.4583 4.2183 13.99 4.74996 14.6458 4.74996C15.3016 4.74996 15.8333 4.2183 15.8333 3.56246C15.8333 2.90662 15.3016 2.37496 14.6458 2.37496ZM11.875 3.56246C11.875 2.03217 13.1155 0.791626 14.6458 0.791626C16.1761 0.791626 17.4166 2.03217 17.4166 3.56246C17.4166 5.09275 16.1761 6.33329 14.6458 6.33329C13.1155 6.33329 11.875 5.09275 11.875 3.56246ZM7.13194 3.16666C7.44898 3.16945 7.73378 3.36113 7.85573 3.65381L11.0009 11.2021L11.9156 8.45795C12.0134 8.16464 12.2729 7.95509 12.5802 7.92135C12.8876 7.88762 13.1864 8.03587 13.3455 8.30098L18.0955 16.2177C18.2422 16.4622 18.2461 16.7668 18.1055 17.015C17.965 17.2632 17.7018 17.4166 17.4166 17.4166H1.5833C1.31613 17.4166 1.06698 17.2819 0.920746 17.0583C0.774511 16.8347 0.750918 16.5524 0.858004 16.3076L6.39967 3.64098C6.52675 3.3505 6.81489 3.16386 7.13194 3.16666ZM2.79377 15.8333H16.0184L12.8734 10.5916L11.8343 13.7086C11.7299 14.0218 11.4421 14.2374 11.1122 14.2494C10.7823 14.2615 10.4795 14.0675 10.3525 13.7628L7.1072 5.97401L2.79377 15.8333Z" fill="#E94057"/>
</svg>
