<svg width="19" height="19" viewBox="0 0 19 19" fill="none" xmlns="http://www.w3.org/2000/svg">
<path fill-rule="evenodd" clip-rule="evenodd" d="M0.791626 9.49996C0.791626 4.69048 4.69048 0.791626 9.49996 0.791626C14.3094 0.791626 18.2083 4.69048 18.2083 9.49996C18.2083 9.70992 18.1249 9.91129 17.9764 10.0598L10.0598 17.9764C9.75059 18.2856 9.24933 18.2856 8.94017 17.9764L1.0235 10.0598C0.875033 9.91129 0.791626 9.70992 0.791626 9.49996ZM2.58476 7.77672C2.60995 7.76184 2.63499 7.74729 2.6599 7.73305C3.1234 7.46819 3.61768 7.2689 4.10223 7.2689C4.58678 7.2689 5.08106 7.46819 5.54457 7.73305C5.87038 7.91923 6.22042 8.161 6.59332 8.45285C7.49324 7.70305 8.46379 7.2689 9.49996 7.2689C10.5361 7.2689 11.5067 7.70305 12.4066 8.45285C12.7795 8.161 13.1295 7.91923 13.4554 7.73305C13.9189 7.46819 14.4131 7.2689 14.8977 7.2689C15.3822 7.2689 15.8765 7.46819 16.34 7.73305C16.3649 7.74728 16.39 7.76185 16.4152 7.77673C15.6446 4.67427 12.8408 2.37496 9.49996 2.37496C6.15914 2.37496 3.35535 4.67427 2.58476 7.77672ZM16.2342 9.56277C15.9803 9.37244 15.754 9.22177 15.5545 9.10777C15.1783 8.89284 14.9729 8.85223 14.8977 8.85223C14.8225 8.85223 14.617 8.89284 14.2409 9.10777C13.9163 9.29325 13.5207 9.57578 13.0508 9.96825L11.4635 14.3335L16.2342 9.56277ZM9.49996 15.1001L11.4557 9.7219C10.7303 9.09884 10.0803 8.85223 9.49996 8.85223C8.91964 8.85223 8.26957 9.09884 7.54426 9.7219L9.49996 15.1001ZM5.94908 9.96825C5.47922 9.57578 5.08359 9.29325 4.75901 9.10777C4.38287 8.89284 4.17745 8.85223 4.10223 8.85223C4.02702 8.85223 3.82159 8.89284 3.44545 9.10777C3.24595 9.22177 3.01961 9.37244 2.76569 9.56277L7.53645 14.3335L5.94908 9.96825Z" fill="#E94057"/>
</svg>
