<svg width="19" height="19" viewBox="0 0 19 19" fill="none" xmlns="http://www.w3.org/2000/svg">
<path fill-rule="evenodd" clip-rule="evenodd" d="M0.791626 9.49996C0.791626 4.69048 4.69048 0.791626 9.49996 0.791626C14.3094 0.791626 18.2083 4.69048 18.2083 9.49996C18.2083 10.3667 17.7095 10.9301 17.1216 11.2707C16.5787 11.5853 15.8886 11.7578 15.2774 11.8902C15.0825 11.9324 14.8938 11.9709 14.7107 12.0082C14.2726 12.0976 13.8666 12.1805 13.484 12.2918C12.9352 12.4514 12.6206 12.6229 12.4675 12.7958L11.875 12.2708L12.4675 12.7958C12.2412 13.0512 12.0961 13.4158 12.0015 13.9134C11.934 14.2684 11.9024 14.6175 11.8682 14.996C11.8524 15.1709 11.8361 15.3522 11.8153 15.5432C11.7571 16.0789 11.6602 16.7362 11.3351 17.2602C11.1607 17.5414 10.9178 17.7909 10.587 17.964C10.2606 18.1349 9.89298 18.2083 9.49996 18.2083C4.69048 18.2083 0.791626 14.3094 0.791626 9.49996ZM9.49996 2.37496C5.56493 2.37496 2.37496 5.56493 2.37496 9.49996C2.37496 13.435 5.56493 16.625 9.49996 16.625C9.69674 16.625 9.80034 16.5887 9.85273 16.5613C9.90068 16.5362 9.94418 16.4988 9.98966 16.4255C10.1044 16.2404 10.1819 15.9182 10.2412 15.3721C10.2555 15.2409 10.2688 15.0946 10.2829 14.9389C10.3202 14.5281 10.3634 14.0522 10.446 13.6176C10.5641 12.9969 10.7835 12.309 11.2824 11.7458C11.748 11.2202 12.4355 10.9478 13.0418 10.7714C13.4909 10.6408 13.9968 10.5376 14.4592 10.4432C14.6277 10.4088 14.7903 10.3756 14.9423 10.3427C15.5619 10.2085 16.0251 10.0761 16.3279 9.90071C16.5858 9.7513 16.625 9.63972 16.625 9.49996C16.625 5.56493 13.435 2.37496 9.49996 2.37496ZM9.10413 5.54163C9.10413 4.44854 9.99021 3.56246 11.0833 3.56246C12.1764 3.56246 13.0625 4.44854 13.0625 5.54163C13.0625 6.63471 12.1764 7.52079 11.0833 7.52079C9.99021 7.52079 9.10413 6.63471 9.10413 5.54163ZM11.0833 5.14579C10.8647 5.14579 10.6875 5.32299 10.6875 5.54163C10.6875 5.76026 10.8647 5.93746 11.0833 5.93746C11.3019 5.93746 11.4791 5.76026 11.4791 5.54163C11.4791 5.32299 11.3019 5.14579 11.0833 5.14579ZM4.35413 7.12496C4.35413 6.03188 5.24021 5.14579 6.33329 5.14579C7.42637 5.14579 8.31246 6.03188 8.31246 7.12496C8.31246 8.21804 7.42637 9.10413 6.33329 9.10413C5.24021 9.10413 4.35413 8.21804 4.35413 7.12496ZM6.33329 6.72913C6.11466 6.72913 5.93746 6.90633 5.93746 7.12496C5.93746 7.34359 6.11466 7.52079 6.33329 7.52079C6.55192 7.52079 6.72913 7.34359 6.72913 7.12496C6.72913 6.90633 6.55192 6.72913 6.33329 6.72913ZM4.74996 12.2708C4.74996 11.1777 5.63604 10.2916 6.72913 10.2916C7.82221 10.2916 8.70829 11.1777 8.70829 12.2708C8.70829 13.3639 7.82221 14.25 6.72913 14.25C5.63604 14.25 4.74996 13.3639 4.74996 12.2708ZM6.72913 11.875C6.51049 11.875 6.33329 12.0522 6.33329 12.2708C6.33329 12.4894 6.51049 12.6666 6.72913 12.6666C6.94776 12.6666 7.12496 12.4894 7.12496 12.2708C7.12496 12.0522 6.94776 11.875 6.72913 11.875Z" fill="#E94057"/>
</svg>
