<svg width="19" height="19" viewBox="0 0 19 19" fill="none" xmlns="http://www.w3.org/2000/svg">
<path d="M5.54162 12.2709C6.59218 12.2709 7.39658 12.4641 8.62597 12.9855L9.07861 13.1834L9.57309 13.4099L10.3003 13.7498L10.719 13.9383C10.7855 13.9676 10.8504 13.9958 10.9139 14.0229L11.2779 14.1736C12.1489 14.5203 12.744 14.6459 13.4583 14.6459C14.209 14.6459 15.0436 14.4456 15.8856 14.1087C16.1859 13.9886 16.465 13.8598 16.7144 13.7316L16.9271 13.6183L17.0093 13.5712C17.3842 13.3462 17.8705 13.4678 18.0955 13.8427C18.3204 14.2177 18.1989 14.7039 17.8239 14.9289L17.6093 15.0513L17.3427 15.1903C17.1 15.3118 16.807 15.4455 16.4737 15.5788C15.4602 15.9842 14.4394 16.2292 13.4583 16.2292C12.4077 16.2292 11.6033 16.036 10.3739 15.5146L9.92131 15.3167L9.42682 15.0902L8.69961 14.7503L8.28087 14.5617C8.21439 14.5325 8.14949 14.5043 8.08605 14.4771L7.72199 14.3265C6.851 13.9798 6.25594 13.8542 5.54162 13.8542C4.79095 13.8542 3.95634 14.0545 3.11429 14.3913C2.81398 14.5115 2.53491 14.6403 2.28553 14.7685L2.07285 14.8818L1.9906 14.9289C1.61568 15.1538 1.12939 15.0323 0.904442 14.6574C0.679491 14.2824 0.801063 13.7961 1.17598 13.5712L1.39059 13.4488L1.65719 13.3098C1.89996 13.1883 2.19294 13.0546 2.52625 12.9212C3.53967 12.5159 4.56053 12.2709 5.54162 12.2709Z" fill="#E94057"/>
<path d="M5.54162 7.52087C6.59218 7.52087 7.39658 7.71407 8.62597 8.2355L9.07861 8.43339L9.57309 8.65985L10.3003 8.99976L10.719 9.18835C10.7855 9.2176 10.8504 9.2458 10.9139 9.27295L11.2779 9.42362C12.1489 9.77026 12.744 9.89587 13.4583 9.89587C14.209 9.89587 15.0436 9.69557 15.8856 9.35875C16.1859 9.23863 16.465 9.10982 16.7144 8.98157L16.9271 8.86832L17.0093 8.82119C17.3842 8.59624 17.8705 8.71781 18.0955 9.09273C18.3204 9.46765 18.1989 9.95394 17.8239 10.1789L17.6093 10.3013L17.3427 10.4403C17.1 10.5618 16.807 10.6955 16.4737 10.8288C15.4602 11.2342 14.4394 11.4792 13.4583 11.4792C12.4077 11.4792 11.6033 11.286 10.3739 10.7646L9.92131 10.5667L9.42682 10.3402L8.69961 10.0003L8.28087 9.81174C8.21439 9.78248 8.14949 9.75429 8.08605 9.72714L7.72199 9.57646C6.851 9.22982 6.25594 9.10421 5.54162 9.10421C4.79095 9.10421 3.95634 9.30451 3.11429 9.64134C2.81398 9.76146 2.53491 9.89026 2.28553 10.0185L2.07285 10.1318L1.9906 10.1789C1.61568 10.4038 1.12939 10.2823 0.904442 9.90735C0.679491 9.53243 0.801063 9.04614 1.17598 8.82119L1.39059 8.69882L1.65719 8.55978C1.89996 8.43832 2.19294 8.30457 2.52625 8.17125C3.53967 7.76588 4.56053 7.52087 5.54162 7.52087Z" fill="#E94057"/>
<path d="M5.54162 2.77087C6.59218 2.77087 7.39658 2.96407 8.62597 3.4855L9.07861 3.68339L9.57309 3.90985L10.3003 4.24976L10.719 4.43835C10.7855 4.4676 10.8504 4.49579 10.9139 4.52295L11.2779 4.67362C12.1489 5.02026 12.744 5.14587 13.4583 5.14587C14.209 5.14587 15.0436 4.94557 15.8856 4.60875C16.1859 4.48862 16.465 4.35982 16.7144 4.23157L16.9271 4.11832L17.0093 4.07119C17.3842 3.84624 17.8705 3.96781 18.0955 4.34273C18.3204 4.71765 18.1989 5.20394 17.8239 5.42889L17.6093 5.55126L17.3427 5.69031C17.1 5.81177 16.807 5.94551 16.4737 6.07884C15.4602 6.4842 14.4394 6.72921 13.4583 6.72921C12.4077 6.72921 11.6033 6.53602 10.3739 6.01458L9.92131 5.81669L9.42682 5.59023L8.69961 5.25032L8.28087 5.06174C8.21439 5.03248 8.14949 5.00429 8.08605 4.97713L7.72199 4.82646C6.851 4.47982 6.25594 4.35421 5.54162 4.35421C4.79095 4.35421 3.95634 4.55451 3.11429 4.89134C2.81398 5.01146 2.53491 5.14026 2.28553 5.26851L2.07285 5.38176L1.9906 5.42889C1.61568 5.65384 1.12939 5.53227 0.904442 5.15735C0.679491 4.78243 0.801063 4.29614 1.17598 4.07119L1.39059 3.94882L1.65719 3.80978C1.89996 3.68832 2.19294 3.55457 2.52625 3.42125C3.53967 3.01588 4.56053 2.77087 5.54162 2.77087Z" fill="#E94057"/>
</svg>
