<svg width="19" height="19" viewBox="0 0 19 19" fill="none" xmlns="http://www.w3.org/2000/svg">
<path fill-rule="evenodd" clip-rule="evenodd" d="M11.4792 3.95833C11.4792 2.42804 12.7197 1.1875 14.25 1.1875C15.7803 1.1875 17.0208 2.42804 17.0208 3.95833C17.0208 5.48861 15.7803 6.72917 14.25 6.72917C12.7197 6.72917 11.4792 5.48861 11.4792 3.95833ZM14.25 2.77083C13.5942 2.77083 13.0625 3.3025 13.0625 3.95833C13.0625 4.61416 13.5942 5.14583 14.25 5.14583C14.9058 5.14583 15.4375 4.61416 15.4375 3.95833C15.4375 3.3025 14.9058 2.77083 14.25 2.77083ZM7.65888 4.79278C7.85554 4.72469 8.07109 4.73677 8.25891 4.82641L12.6118 6.90398C12.8622 7.02346 13.0317 7.26522 13.0587 7.54127C13.0858 7.81732 12.9664 8.08739 12.744 8.25316L9.29653 10.8231L12.7061 13.0676C12.8886 13.1877 13.0133 13.3779 13.0508 13.5931C13.0883 13.8083 13.0351 14.0294 12.904 14.2041L10.1364 17.8911C9.87397 18.2408 9.37773 18.3115 9.02805 18.049C8.67838 17.7865 8.60768 17.2903 8.87016 16.9406L11.1322 13.9271L7.48261 11.5246C7.26699 11.3826 7.13412 11.1445 7.12658 10.8864C7.11904 10.6284 7.23779 10.3829 7.44476 10.2286L10.7459 7.76782L7.87003 6.39524L5.00905 7.38586C4.59589 7.52892 4.14498 7.30996 4.00193 6.8968C3.85887 6.48364 4.07783 6.03274 4.49099 5.88968L7.65888 4.79278ZM17.9935 6.37145C18.2929 6.69009 18.2773 7.1911 17.9587 7.49049L15.5844 9.72141C15.3353 9.95541 14.9643 10.0032 14.6641 9.83994L13.6025 9.26265C13.2184 9.05377 13.0764 8.57306 13.2853 8.18896C13.4942 7.80486 13.9749 7.66282 14.359 7.87171L14.9175 8.17543L16.8745 6.3366C17.1931 6.03721 17.6942 6.05281 17.9935 6.37145ZM7.1481 11.8562C7.49635 12.1205 7.56434 12.6172 7.29996 12.9654L6.12446 14.5138C6.05876 14.6004 5.97596 14.6725 5.8812 14.7256L1.97219 16.9182C1.59085 17.1321 1.10833 16.9964 0.894433 16.615C0.680539 16.2337 0.816276 15.7512 1.19761 15.5373L4.96296 13.4253L6.03886 12.008C6.30324 11.6598 6.79986 11.5918 7.1481 11.8562Z" fill="#E94057"/>
</svg>
