<svg width="19" height="19" viewBox="0 0 19 19" fill="none" xmlns="http://www.w3.org/2000/svg">
<path fill-rule="evenodd" clip-rule="evenodd" d="M9.49996 0.791626C4.69048 0.791626 0.791626 4.69048 0.791626 9.49996C0.791626 14.3094 4.69048 18.2083 9.49996 18.2083C14.3094 18.2083 18.2083 14.3094 18.2083 9.49996C18.2083 4.69048 14.3094 0.791626 9.49996 0.791626ZM12.0367 12.1279C13.1158 11.1145 14.6288 10.3286 16.5835 10.2735C16.2266 13.5791 13.6088 16.2071 10.3079 16.5797C10.413 14.5228 11.0248 13.0783 12.0367 12.1279ZM8.72274 16.5831C8.82983 14.2145 9.53641 12.304 10.9528 10.9738C12.2953 9.71293 14.1853 8.7464 16.5794 8.68967C16.2053 5.3851 13.5707 2.76569 10.2591 2.41493C10.1048 4.78558 9.42694 6.70465 8.12927 8.06828C6.80984 9.45468 4.85989 10.1487 2.41652 10.274C2.77472 13.5896 5.40754 16.2234 8.72274 16.5831ZM8.67163 2.42259C8.51989 4.49972 7.92627 5.98482 6.98229 6.97678C6.05193 7.95436 4.57547 8.56469 2.42069 8.68828C2.79274 5.40739 5.39303 2.80218 8.67163 2.42259Z" fill="#E94057"/>
</svg>
