<svg width="19" height="19" viewBox="0 0 19 19" fill="none" xmlns="http://www.w3.org/2000/svg">
<path fill-rule="evenodd" clip-rule="evenodd" d="M9.49996 2.77083C7.31383 2.77083 5.54163 4.54304 5.54163 6.72917C5.54163 6.74789 5.54176 6.76657 5.54202 6.78523C5.80045 6.74828 6.06464 6.72917 6.33329 6.72917C7.51076 6.72917 8.60246 7.09639 9.5001 7.72256C10.3977 7.09651 11.4893 6.72936 12.6666 6.72936C12.9353 6.72936 13.1995 6.74848 13.4579 6.78543C13.4582 6.76671 13.4583 6.74795 13.4583 6.72917C13.4583 4.54304 11.6861 2.77083 9.49996 2.77083ZM15.0174 7.2512C15.0334 7.07935 15.0416 6.90522 15.0416 6.72917C15.0416 3.66859 12.5605 1.1875 9.49996 1.1875C6.43938 1.1875 3.95829 3.66859 3.95829 6.72917C3.95829 6.90515 3.9665 7.07922 3.98254 7.25101C2.09723 8.13542 0.791626 10.0507 0.791626 12.2708C0.791626 15.3314 3.27271 17.8125 6.33329 17.8125C7.51064 17.8125 8.60223 17.4454 9.49982 16.8193C10.3975 17.4455 11.4892 17.8127 12.6666 17.8127C15.7272 17.8127 18.2083 15.3316 18.2083 12.271C18.2083 10.0508 16.9027 8.1356 15.0174 7.2512ZM13.1176 8.33811C12.9696 8.32132 12.8191 8.3127 12.6666 8.3127C11.9456 8.3127 11.2696 8.50548 10.6874 8.84231C11.0034 9.24313 11.2653 9.68864 11.462 10.1678C12.1905 9.75123 12.7739 9.10981 13.1176 8.33811ZM11.8507 11.749C13.1038 11.1611 14.1008 10.1179 14.6286 8.83236C15.8212 9.51429 16.625 10.7988 16.625 12.271C16.625 14.4572 14.8528 16.2294 12.6666 16.2294C11.9455 16.2294 11.2694 16.0365 10.6871 15.6996C11.431 14.7563 11.875 13.5654 11.875 12.2708C11.875 12.0948 11.8668 11.9208 11.8507 11.749ZM9.95104 10.6621C9.82936 10.3888 9.67762 10.1319 9.50004 9.89555C9.32243 10.1319 9.17067 10.3888 9.04896 10.6621C9.19697 10.6789 9.34746 10.6875 9.49996 10.6875C9.65249 10.6875 9.80301 10.6789 9.95104 10.6621ZM8.70868 12.2148C8.96712 12.2517 9.23131 12.2708 9.49996 12.2708C9.76861 12.2708 10.0328 12.2517 10.2912 12.2148C10.2915 12.2334 10.2916 12.2521 10.2916 12.2708C10.2916 13.1622 9.99703 13.9847 9.49989 14.6463C9.00284 13.9847 8.70829 13.1623 8.70829 12.271C8.70829 12.2522 8.70842 12.2335 8.70868 12.2148ZM7.538 10.1678C7.73473 9.68863 7.99667 9.24308 8.31278 8.84224C7.73049 8.50533 7.05441 8.3125 6.33329 8.3125C6.18076 8.3125 6.03025 8.32113 5.88221 8.33792C6.22594 9.10973 6.80939 9.75123 7.538 10.1678ZM4.37127 8.8322C4.89899 10.1178 5.89604 11.1611 7.14923 11.749C7.13317 11.9209 7.12496 12.095 7.12496 12.271C7.12496 13.5655 7.56878 14.7563 8.31256 15.6996C7.73032 16.0364 7.05432 16.2292 6.33329 16.2292C4.14717 16.2292 2.37496 14.457 2.37496 12.2708C2.37496 10.7986 3.17867 9.51414 4.37127 8.8322Z" fill="#E94057"/>
</svg>
