<svg width="19" height="19" viewBox="0 0 19 19" fill="none" xmlns="http://www.w3.org/2000/svg">
<path fill-rule="evenodd" clip-rule="evenodd" d="M5.93754 4.35413C5.93754 2.38661 7.53252 0.791626 9.50004 0.791626C11.4676 0.791626 13.0625 2.38661 13.0625 4.35413V9.49996C13.0625 11.4675 11.4676 13.0625 9.50004 13.0625C7.53252 13.0625 5.93754 11.4675 5.93754 9.49996V4.35413ZM9.50004 2.37496C8.40698 2.37496 7.52087 3.26106 7.52087 4.35413V9.49996C7.52087 10.593 8.40697 11.4791 9.50004 11.4791C10.5931 11.4791 11.4792 10.593 11.4792 9.49996V4.35413C11.4792 3.26106 10.5931 2.37496 9.50004 2.37496ZM3.56254 8.31246C3.99977 8.31246 4.35421 8.6669 4.35421 9.10413C4.35421 11.9461 6.65806 14.25 9.50004 14.25C12.342 14.25 14.6459 11.9461 14.6459 9.10413C14.6459 8.6669 15.0003 8.31246 15.4375 8.31246C15.8748 8.31246 16.2292 8.6669 16.2292 9.10413C16.2292 12.5527 13.6351 15.3954 10.2917 15.7872V17.4166C10.2917 17.8539 9.93727 18.2083 9.50004 18.2083C9.06282 18.2083 8.70837 17.8539 8.70837 17.4166V15.7872C5.36502 15.3954 2.77087 12.5527 2.77087 9.10413C2.77087 8.6669 3.12532 8.31246 3.56254 8.31246Z" fill="#E94057"/>
</svg>
