<svg width="19" height="19" viewBox="0 0 19 19" fill="" xmlns="http://www.w3.org/2000/svg">
<path fill-rule="evenodd" clip-rule="evenodd" d="M9.5 2.37496C8.40693 2.37496 7.52083 3.26106 7.52083 4.35413V4.74996H11.4792V4.35413C11.4792 3.26106 10.5931 2.37496 9.5 2.37496ZM13.0625 4.74996V4.35413C13.0625 2.38661 11.4675 0.791626 9.5 0.791626C7.53248 0.791626 5.9375 2.38661 5.9375 4.35413V4.74996H3.95833C3.08388 4.74996 2.375 5.45884 2.375 6.33329V16.625C2.375 17.4994 3.08388 18.2083 3.95833 18.2083H15.0417C15.9161 18.2083 16.625 17.4994 16.625 16.625V6.33329C16.625 5.45884 15.9161 4.74996 15.0417 4.74996H13.0625ZM11.4792 6.33329V7.12496C11.4792 7.56218 11.8336 7.91663 12.2708 7.91663C12.7081 7.91663 13.0625 7.56218 13.0625 7.12496V6.33329H15.0417V16.625H3.95833V6.33329H5.9375V7.12496C5.9375 7.56218 6.29194 7.91663 6.72917 7.91663C7.16639 7.91663 7.52083 7.56218 7.52083 7.12496V6.33329H11.4792Z" fill="#E94057"/>
</svg>
